<svg id="visual" viewBox="0 0 900 600" width="900" height="600" xmlns="http://www.w3.org/2000/svg" xmlns:xlink="http://www.w3.org/1999/xlink" version="1.1"><rect x="0" y="0" width="900" height="600" fill="#ffffff"></rect><path d="M206 0L205.5 7.7C205 15.3 204 30.7 205.5 46C207 61.3 211 76.7 215.3 92C219.7 107.3 224.3 122.7 219.7 138.2C215 153.7 201 169.3 182 184.8C163 200.3 139 215.7 136.7 231C134.3 246.3 153.7 261.7 172.3 277C191 292.3 209 307.7 216 323C223 338.3 219 353.7 215 369C211 384.3 207 399.7 198.7 415.2C190.3 430.7 177.7 446.3 176.2 461.8C174.7 477.3 184.3 492.7 189.3 508C194.3 523.3 194.7 538.7 202.5 554C210.3 569.3 225.7 584.7 233.3 592.3L241 600L0 600L0 592.3C0 584.7 0 569.3 0 554C0 538.7 0 523.3 0 508C0 492.7 0 477.3 0 461.8C0 446.3 0 430.7 0 415.2C0 399.7 0 384.3 0 369C0 353.7 0 338.3 0 323C0 307.7 0 292.3 0 277C0 261.7 0 246.3 0 231C0 215.7 0 200.3 0 184.8C0 169.3 0 153.7 0 138.2C0 122.7 0 107.3 0 92C0 76.7 0 61.3 0 46C0 30.7 0 15.3 0 7.7L0 0Z" fill="#4facf7"></path><path d="M200 0L181.8 7.7C163.7 15.3 127.3 30.7 119.3 46C111.3 61.3 131.7 76.7 136.2 92C140.7 107.3 129.3 122.7 125.2 138.2C121 153.7 124 169.3 130 184.8C136 200.3 145 215.7 145.3 231C145.7 246.3 137.3 261.7 132.7 277C128 292.3 127 307.7 130 323C133 338.3 140 353.7 139.7 369C139.3 384.3 131.7 399.7 138 415.2C144.3 430.7 164.7 446.3 175.2 461.8C185.7 477.3 186.3 492.7 185.2 508C184 523.3 181 538.7 168 554C155 569.3 132 584.7 120.5 592.3L109 600L0 600L0 592.3C0 584.7 0 569.3 0 554C0 538.7 0 523.3 0 508C0 492.7 0 477.3 0 461.8C0 446.3 0 430.7 0 415.2C0 399.7 0 384.3 0 369C0 353.7 0 338.3 0 323C0 307.7 0 292.3 0 277C0 261.7 0 246.3 0 231C0 215.7 0 200.3 0 184.8C0 169.3 0 153.7 0 138.2C0 122.7 0 107.3 0 92C0 76.7 0 61.3 0 46C0 30.7 0 15.3 0 7.7L0 0Z" fill="#d593e9"></path><path d="M137 0L136 7.7C135 15.3 133 30.7 130 46C127 61.3 123 76.7 110.3 92C97.7 107.3 76.3 122.7 74.7 138.2C73 153.7 91 169.3 98.2 184.8C105.3 200.3 101.7 215.7 99.7 231C97.7 246.3 97.3 261.7 100.7 277C104 292.3 111 307.7 102.5 323C94 338.3 70 353.7 66.5 369C63 384.3 80 399.7 80.5 415.2C81 430.7 65 446.3 66.5 461.8C68 477.3 87 492.7 89.2 508C91.3 523.3 76.7 538.7 76.7 554C76.7 569.3 91.3 584.7 98.7 592.3L106 600L0 600L0 592.3C0 584.7 0 569.3 0 554C0 538.7 0 523.3 0 508C0 492.7 0 477.3 0 461.8C0 446.3 0 430.7 0 415.2C0 399.7 0 384.3 0 369C0 353.7 0 338.3 0 323C0 307.7 0 292.3 0 277C0 261.7 0 246.3 0 231C0 215.7 0 200.3 0 184.8C0 169.3 0 153.7 0 138.2C0 122.7 0 107.3 0 92C0 76.7 0 61.3 0 46C0 30.7 0 15.3 0 7.7L0 0Z" fill="#ff8499"></path><path d="M64 0L59.7 7.7C55.3 15.3 46.7 30.7 49.3 46C52 61.3 66 76.7 70.5 92C75 107.3 70 122.7 66.7 138.2C63.3 153.7 61.7 169.3 59.3 184.8C57 200.3 54 215.7 56.7 231C59.3 246.3 67.7 261.7 72.5 277C77.3 292.3 78.7 307.7 69.7 323C60.7 338.3 41.3 353.7 40 369C38.7 384.3 55.3 399.7 66.5 415.2C77.7 430.7 83.3 446.3 83 461.8C82.7 477.3 76.3 492.7 74 508C71.7 523.3 73.3 538.7 75.7 554C78 569.3 81 584.7 82.5 592.3L84 600L0 600L0 592.3C0 584.7 0 569.3 0 554C0 538.7 0 523.3 0 508C0 492.7 0 477.3 0 461.8C0 446.3 0 430.7 0 415.2C0 399.7 0 384.3 0 369C0 353.7 0 338.3 0 323C0 307.7 0 292.3 0 277C0 261.7 0 246.3 0 231C0 215.7 0 200.3 0 184.8C0 169.3 0 153.7 0 138.2C0 122.7 0 107.3 0 92C0 76.7 0 61.3 0 46C0 30.7 0 15.3 0 7.7L0 0Z" fill="#fcaf3c"></path></svg>